<svg width="656.6636474609375px" height="120.8px" xmlns="http://www.w3.org/2000/svg" viewBox="-78.33182373046873 14.600000000000001 656.6636474609375 120.8" style="background: rgba(0, 0, 0, 0);" preserveAspectRatio="xMidYMid"><defs><filter id="editing-raise" x="-100%" y="-100%" width="300%" height="300%"><feFlood flood-color="#030303" result="flood-surface"></feFlood><feFlood flood-color="#777777" result="flood-extrude"></feFlood><feMorphology operator="erode" in="SourceAlpha" radius="1" result="erode"></feMorphology><feConvolveMatrix in="erode" result="shadow" order="11,8" divisor="1" kernelMatrix="0 0 0 1 1 1 1 1 0 0 0 0 0 1 0 0 0 0 0 1 0 0 0 0 1 0 0 0 0 0 1 0 0 0 0 1 0 0 0 0 0 1 0 0 0 0 1 0 0 0 0 0 1 0 0 0 0 0 1 0 0 0 1 0 0 0 0 0 0 1 1 0 1 1 0 0 0 0 0 0 0 0 1 0 0 0 0 0"></feConvolveMatrix><feOffset dx="0" dy="4" in="shadow" result="offset"></feOffset><feGaussianBlur in="offset" stdDeviation="0.2" result="blur"></feGaussianBlur><feComposite operator="in" in="flood-extrude" in2="blur" result="extrude"></feComposite><feMorphology operator="erode" in="SourceAlpha" radius="1" result="erode2"></feMorphology><feConvolveMatrix in="erode2" result="out" order="4,4" divisor="1" kernelMatrix="0 1 1 0 1 0 0 1 1 0 0 1 0 1 1 0 "></feConvolveMatrix><feComposite operator="in" in="flood-surface" in2="out" result="text"></feComposite><feMerge><feMergeNode in="extrude"></feMergeNode><feMergeNode in="text"></feMergeNode></feMerge></filter></defs><g filter="url(#editing-raise)"><g transform="translate(17.933063626289368, 98.68000030517578)"><path d="M6.53 0L-0.83 0L10.75-42.24L24.13-42.24L27.07-18.11L38.98-42.24L50.18-42.24L51.33-10.62L51.33-10.62Q51.58-4.35 54.66-2.43L54.66-2.43L54.66-2.43Q53.95-1.15 51.90 0.06L51.90 0.06L51.90 0.06Q49.86 1.28 47.14 1.28L47.14 1.28L47.14 1.28Q44.42 1.28 42.82 0.51L42.82 0.51L42.82 0.51Q41.22-0.26 40.32-1.54L40.32-1.54L40.32-1.54Q38.72-3.84 38.72-8.26L38.72-8.26L38.72-28.03L26.11 0L18.18 0L13.70-28.74L6.53 0ZM83.33-10.82L83.33-10.82L83.33-10.82Q84.93-9.73 84.93-7.33L84.93-7.33L84.93-7.33Q84.93-4.93 83.71-3.39L83.71-3.39L83.71-3.39Q82.50-1.86 80.51-0.83L80.51-0.83L80.51-0.83Q76.42 1.28 72 1.28L72 1.28L72 1.28Q67.58 1.28 64.99 0.32L64.99 0.32L64.99 0.32Q62.40-0.64 60.67-2.43L60.67-2.43L60.67-2.43Q57.28-5.82 57.28-12.03L57.28-12.03L57.28-12.03Q57.28-21.70 62.53-27.58L62.53-27.58L62.53-27.58Q68.16-33.92 77.95-33.92L77.95-33.92L77.95-33.92Q84.03-33.92 87.04-31.36L87.04-31.36L87.04-31.36Q89.28-29.44 89.28-26.30L89.28-26.30L89.28-26.30Q89.28-15.04 69.82-15.04L69.82-15.04L69.82-15.04Q69.57-13.38 69.57-11.97L69.57-11.97L69.57-11.97Q69.57-9.02 70.88-7.90L70.88-7.90L70.88-7.90Q72.19-6.78 74.62-6.78L74.62-6.78L74.62-6.78Q77.06-6.78 79.65-7.90L79.65-7.90L79.65-7.90Q82.24-9.02 83.33-10.82ZM70.27-17.79L70.27-17.79L70.27-17.79Q74.82-17.79 77.44-20.61L77.44-20.61L77.44-20.61Q80.06-23.30 80.06-27.58L80.06-27.58L80.06-27.58Q80.06-29.06 79.52-29.86L79.52-29.86L79.52-29.86Q78.98-30.66 77.89-30.66L77.89-30.66L77.89-30.66Q76.80-30.66 75.87-30.24L75.87-30.24L75.87-30.24Q74.94-29.82 73.98-28.42L73.98-28.42L73.98-28.42Q71.62-25.22 70.27-17.79ZM92.48-6.40L92.48-6.40L92.48-6.40Q92.48-8.13 93.38-12.48L93.38-12.48L96.77-29.76L92.99-29.76L93.25-31.68L93.25-31.68Q100.93-33.98 108.35-39.62L108.35-39.62L111.42-39.62L109.89-32.64L114.88-32.64L114.30-29.76L109.38-29.76L106.11-12.48L106.11-12.48Q105.28-8.51 105.28-7.17L105.28-7.17L105.28-7.17Q105.28-4.10 107.97-3.46L107.97-3.46L107.97-3.46Q107.33-1.28 105.02 0L105.02 0L105.02 0Q102.72 1.28 99.46 1.28L99.46 1.28L99.46 1.28Q96.19 1.28 94.34-0.77L94.34-0.77L94.34-0.77Q92.48-2.82 92.48-6.40ZM117.09-1.92L117.09-1.92L117.09-1.92Q115.58-3.58 114.91-6.21L114.91-6.21L114.91-6.21Q114.24-8.83 114.24-13.12L114.24-13.12L114.24-13.12Q114.24-17.41 115.71-21.31L115.71-21.31L115.71-21.31Q117.18-25.22 119.87-28.03L119.87-28.03L119.87-28.03Q125.38-33.92 134.46-33.92L134.46-33.92L134.46-33.92Q137.73-33.92 140.10-32.83L140.10-32.83L151.04-33.92L146.30-8.96L146.30-8.96Q146.11-8.19 146.11-6.78L146.11-6.78L146.11-6.78Q146.11-5.38 146.98-4.48L146.98-4.48L146.98-4.48Q147.84-3.58 149.12-3.46L149.12-3.46L149.12-3.46Q148.48-1.28 146.14 0L146.14 0L146.14 0Q143.81 1.28 141.18 1.28L141.18 1.28L141.18 1.28Q138.56 1.28 136.80 0.29L136.80 0.29L136.80 0.29Q135.04-0.70 134.53-2.37L134.53-2.37L134.53-2.37Q133.50-0.77 131.33 0.26L131.33 0.26L131.33 0.26Q129.15 1.28 126.24 1.28L126.24 1.28L126.24 1.28Q123.33 1.28 120.96 0.51L120.96 0.51L120.96 0.51Q118.59-0.26 117.09-1.92ZM130.59-27.90L130.59-27.90L130.59-27.90Q129.86-26.75 129.22-24.80L129.22-24.80L129.22-24.80Q128.58-22.85 127.52-17.63L127.52-17.63L127.52-17.63Q126.46-12.42 126.46-8.70L126.46-8.70L126.46-8.70Q126.46-4.99 127.04-3.90L127.04-3.90L127.04-3.90Q127.62-2.82 128.64-2.82L128.64-2.82L128.64-2.82Q130.69-2.82 132.19-4.77L132.19-4.77L132.19-4.77Q133.70-6.72 134.27-10.18L134.27-10.18L137.66-28.93L137.66-28.93Q136.32-30.08 134.75-30.08L134.75-30.08L134.75-30.08Q133.18-30.08 132.26-29.57L132.26-29.57L132.26-29.57Q131.33-29.06 130.59-27.90ZM183.62-33.92L183.62-33.92L183.62-33.92Q178.43-33.92 174.66-35.65L174.66-35.65L172.61-25.28L184.96-25.28L184.96-25.28Q184.96-21.89 183.26-19.74L183.26-19.74L183.26-19.74Q181.57-17.60 178.50-17.60L178.50-17.60L178.50-17.60Q175.17-17.60 172.10-18.82L172.10-18.82L172.10-18.82Q171.46-19.07 171.39-19.14L171.39-19.14L167.74 0L153.79 0L161.92-42.24L190.46-42.24L190.46-42.24Q190.46-38.34 188.64-36.13L188.64-36.13L188.64-36.13Q186.82-33.92 183.62-33.92ZM202.37 1.28L202.37 1.28L202.37 1.28Q188.29 1.28 188.29-11.97L188.29-11.97L188.29-11.97Q188.29-21.38 193.47-27.46L193.47-27.46L193.47-27.46Q198.98-33.92 208.51-33.92L208.51-33.92L208.51-33.92Q215.42-33.92 218.94-30.72L218.94-30.72L218.94-30.72Q222.46-27.52 222.46-20.80L222.46-20.80L222.46-20.80Q222.46-10.56 216.96-4.61L216.96-4.61L216.96-4.61Q211.58 1.28 202.37 1.28ZM204.03-26.56L204.03-26.56L204.03-26.56Q203.26-24.83 202.66-22.24L202.66-22.24L202.66-22.24Q202.05-19.65 201.28-15.55L201.28-15.55L201.28-15.55Q200.51-11.46 200.51-6.40L200.51-6.40L200.51-6.40Q200.51-4.74 201.06-3.65L201.06-3.65L201.06-3.65Q201.60-2.56 203.07-2.56L203.07-2.56L203.07-2.56Q204.54-2.56 205.47-3.26L205.47-3.26L205.47-3.26Q206.40-3.97 207.10-5.63L207.10-5.63L207.10-5.63Q208.38-8.58 209.41-14.05L209.41-14.05L209.41-14.05Q210.43-19.52 210.53-21.89L210.53-21.89L210.53-21.89Q210.62-24.26 210.62-26.02L210.62-26.02L210.62-26.02Q210.62-27.78 210.11-28.93L210.11-28.93L210.11-28.93Q209.60-30.08 208.16-30.08L208.16-30.08L208.16-30.08Q206.72-30.08 205.76-29.18L205.76-29.18L205.76-29.18Q204.80-28.29 204.03-26.56ZM240.19 1.28L240.19 1.28L240.19 1.28Q226.11 1.28 226.11-11.97L226.11-11.97L226.11-11.97Q226.11-21.38 231.30-27.46L231.30-27.46L231.30-27.46Q236.80-33.92 246.34-33.92L246.34-33.92L246.34-33.92Q253.25-33.92 256.77-30.72L256.77-30.72L256.77-30.72Q260.29-27.52 260.29-20.80L260.29-20.80L260.29-20.80Q260.29-10.56 254.78-4.61L254.78-4.61L254.78-4.61Q249.41 1.28 240.19 1.28ZM241.86-26.56L241.86-26.56L241.86-26.56Q241.09-24.83 240.48-22.24L240.48-22.24L240.48-22.24Q239.87-19.65 239.10-15.55L239.10-15.55L239.10-15.55Q238.34-11.46 238.34-6.40L238.34-6.40L238.34-6.40Q238.34-4.74 238.88-3.65L238.88-3.65L238.88-3.65Q239.42-2.56 240.90-2.56L240.90-2.56L240.90-2.56Q242.37-2.56 243.30-3.26L243.30-3.26L243.30-3.26Q244.22-3.97 244.93-5.63L244.93-5.63L244.93-5.63Q246.21-8.58 247.23-14.05L247.23-14.05L247.23-14.05Q248.26-19.52 248.35-21.89L248.35-21.89L248.35-21.89Q248.45-24.26 248.45-26.02L248.45-26.02L248.45-26.02Q248.45-27.78 247.94-28.93L247.94-28.93L247.94-28.93Q247.42-30.08 245.98-30.08L245.98-30.08L245.98-30.08Q244.54-30.08 243.58-29.18L243.58-29.18L243.58-29.18Q242.62-28.29 241.86-26.56ZM284.22-33.92L284.22-33.92L284.22-33.92Q286.53-33.92 288.32-33.41L288.32-33.41L288.32-33.41Q288.38-33.66 288.51-34.37L288.51-34.37L288.83-36.35L288.83-36.35Q289.09-37.63 289.47-39.74L289.47-39.74L290.50-44.80L303.23-46.08L296.13-8.96L296.13-8.96Q296.06-8.58 296.06-7.94L296.06-7.94L296.06-6.91L296.06-6.91Q296.06-5.50 296.77-4.45L296.77-4.45L296.77-4.45Q297.47-3.39 298.62-3.39L298.62-3.39L298.62-3.39Q297.34-0.38 293.44 0.90L293.44 0.90L293.44 0.90Q292.10 1.28 290.21 1.28L290.21 1.28L290.21 1.28Q288.32 1.28 286.59 0.29L286.59 0.29L286.59 0.29Q284.86-0.70 284.35-2.37L284.35-2.37L284.35-2.37Q283.33-0.70 281.28 0.29L281.28 0.29L281.28 0.29Q279.23 1.28 276.26 1.28L276.26 1.28L276.26 1.28Q273.28 1.28 270.82 0.51L270.82 0.51L270.82 0.51Q268.35-0.26 266.82-1.92L266.82-1.92L266.82-1.92Q264-5.18 264-12.61L264-12.61L264-12.61Q264-22.21 269.63-28.03L269.63-28.03L269.63-28.03Q275.26-33.92 284.22-33.92ZM283.78-30.08L283.78-30.08L283.78-30.08Q281.41-30.08 280.13-27.52L280.13-27.52L280.13-27.52Q278.85-24.96 277.54-18.62L277.54-18.62L277.54-18.62Q276.22-12.29 276.22-6.59L276.22-6.59L276.22-6.59Q276.22-2.69 278.53-2.69L278.53-2.69L278.53-2.69Q280.58-2.69 282.02-4.74L282.02-4.74L282.02-4.74Q283.46-6.78 284.03-10.18L284.03-10.18L287.49-28.93L287.49-28.93Q286.14-30.08 283.78-30.08ZM337.47-13.25L337.47-13.25L337.47-13.25Q339.14-12.03 339.14-9.44L339.14-9.44L339.14-9.44Q339.14-6.85 338.02-5.02L338.02-5.02L338.02-5.02Q336.90-3.20 334.72-1.79L334.72-1.79L334.72-1.79Q330.05 1.22 321.89 1.22L321.89 1.22L321.89 1.22Q313.73 1.22 309.28-3.04L309.28-3.04L309.28-3.04Q304.83-7.30 304.83-14.85L304.83-14.85L304.83-14.85Q304.83-25.54 310.40-33.66L310.40-33.66L310.40-33.66Q314.62-39.68 322.18-42.24L322.18-42.24L322.18-42.24Q326.08-43.52 329.92-43.52L329.92-43.52L329.92-43.52Q333.76-43.52 336.13-43.01L336.13-43.01L336.13-43.01Q338.50-42.50 340.29-41.47L340.29-41.47L340.29-41.47Q344.19-39.23 344.19-35.65L344.19-35.65L344.19-35.65Q344.19-32.38 341.12-29.95L341.12-29.95L341.12-29.95Q338.30-27.78 336-27.78L336-27.78L336-27.78Q333.70-27.78 332.74-28.10L332.74-28.10L332.74-28.10Q332.99-30.40 332.99-31.90L332.99-31.90L332.99-31.90Q332.99-33.41 332.93-34.50L332.93-34.50L332.93-34.50Q332.86-35.58 332.54-36.61L332.54-36.61L332.54-36.61Q331.90-38.98 329.95-38.98L329.95-38.98L329.95-38.98Q328-38.98 326.05-37.15L326.05-37.15L326.05-37.15Q324.10-35.33 322.43-32.26L322.43-32.26L322.43-32.26Q318.66-25.28 318.66-17.02L318.66-17.02L318.66-17.02Q318.66-13.06 320.90-10.78L320.90-10.78L320.90-10.78Q323.14-8.51 327.94-8.51L327.94-8.51L327.94-8.51Q331.52-8.51 334.91-10.88L334.91-10.88L334.91-10.88Q336.38-11.90 337.47-13.25ZM364.48-17.98L364.48-17.98L364.48-17.98Q366.78-22.08 366.78-26.24L366.78-26.24L366.78-26.24Q366.78-28.99 364.80-28.99L364.80-28.99L364.80-28.99Q363.26-28.99 361.66-26.37L361.66-26.37L361.66-26.37Q360-23.74 359.49-20.35L359.49-20.35L356.16 0L342.91 1.28L349.44-32.64L360-33.92L358.85-27.46L358.85-27.46Q361.98-33.92 369.02-33.92L369.02-33.92L369.02-33.92Q372.74-33.92 374.75-32L374.75-32L374.75-32Q376.77-30.08 376.77-26.14L376.77-26.14L376.77-26.14Q376.77-22.21 374.18-19.71L374.18-19.71L374.18-19.71Q371.58-17.22 367.17-17.22L367.17-17.22L367.17-17.22Q365.25-17.22 364.48-17.98ZM380.58-1.92L380.58-1.92L380.58-1.92Q379.07-3.58 378.40-6.21L378.40-6.21L378.40-6.21Q377.73-8.83 377.73-13.12L377.73-13.12L377.73-13.12Q377.73-17.41 379.20-21.31L379.20-21.31L379.20-21.31Q380.67-25.22 383.36-28.03L383.36-28.03L383.36-28.03Q388.86-33.92 397.95-33.92L397.95-33.92L397.95-33.92Q401.22-33.92 403.58-32.83L403.58-32.83L414.53-33.92L409.79-8.96L409.79-8.96Q409.60-8.19 409.60-6.78L409.60-6.78L409.60-6.78Q409.60-5.38 410.46-4.48L410.46-4.48L410.46-4.48Q411.33-3.58 412.61-3.46L412.61-3.46L412.61-3.46Q411.97-1.28 409.63 0L409.63 0L409.63 0Q407.30 1.28 404.67 1.28L404.67 1.28L404.67 1.28Q402.05 1.28 400.29 0.29L400.29 0.29L400.29 0.29Q398.53-0.70 398.02-2.37L398.02-2.37L398.02-2.37Q396.99-0.77 394.82 0.26L394.82 0.26L394.82 0.26Q392.64 1.28 389.73 1.28L389.73 1.28L389.73 1.28Q386.82 1.28 384.45 0.51L384.45 0.51L384.45 0.51Q382.08-0.26 380.58-1.92ZM394.08-27.90L394.08-27.90L394.08-27.90Q393.34-26.75 392.70-24.80L392.70-24.80L392.70-24.80Q392.06-22.85 391.01-17.63L391.01-17.63L391.01-17.63Q389.95-12.42 389.95-8.70L389.95-8.70L389.95-8.70Q389.95-4.99 390.53-3.90L390.53-3.90L390.53-3.90Q391.10-2.82 392.13-2.82L392.13-2.82L392.13-2.82Q394.18-2.82 395.68-4.77L395.68-4.77L395.68-4.77Q397.18-6.72 397.76-10.18L397.76-10.18L401.15-28.93L401.15-28.93Q399.81-30.08 398.24-30.08L398.24-30.08L398.24-30.08Q396.67-30.08 395.74-29.57L395.74-29.57L395.74-29.57Q394.82-29.06 394.08-27.90ZM442.94-37.12L442.94-37.12L442.94-37.12Q443.84-38.66 443.84-40.32L443.84-40.32L443.84-40.32Q443.84-43.26 442.05-43.26L442.05-43.26L442.05-43.26Q439.30-43.26 438.14-37.63L438.14-37.63L437.18-32.64L443.01-32.64L442.62-29.76L436.61-29.76L430.85 0L417.92 1.28L424.06-29.76L419.52-29.76L420.10-32.64L424.58-32.64L425.92-37.70L425.92-37.70Q427.07-42.37 432-44.54L432-44.54L432-44.54Q435.58-46.08 441.60-46.08L441.60-46.08L441.60-46.08Q447.62-46.08 450.30-44.54L450.30-44.54L450.30-44.54Q452.99-43.01 452.99-40.96L452.99-40.96L452.99-40.96Q452.99-38.91 451.39-37.63L451.39-37.63L451.39-37.63Q449.79-36.35 448-36.35L448-36.35L448-36.35Q444.48-36.35 442.94-37.12ZM443.46-6.40L443.46-6.40L443.46-6.40Q443.46-8.13 444.35-12.48L444.35-12.48L447.74-29.76L443.97-29.76L444.22-31.68L444.22-31.68Q451.90-33.98 459.33-39.62L459.33-39.62L462.40-39.62L460.86-32.64L465.86-32.64L465.28-29.76L460.35-29.76L457.09-12.48L457.09-12.48Q456.26-8.51 456.26-7.17L456.26-7.17L456.26-7.17Q456.26-4.10 458.94-3.46L458.94-3.46L458.94-3.46Q458.30-1.28 456 0L456 0L456 0Q453.70 1.28 450.43 1.28L450.43 1.28L450.43 1.28Q447.17 1.28 445.31-0.77L445.31-0.77L445.31-0.77Q443.46-2.82 443.46-6.40Z"></path></g></g><style>text {
  font-size: 64px;
  font-family: Arial Black;
  dominant-baseline: central;
  text-anchor: middle;
}</style></svg>